<svg version="1" xmlns="http://www.w3.org/2000/svg" width="346.667" height="346.667" viewBox="0 0 260.000000 260.000000"><path d="M120.3 4.1c-3.1.8-4.2 1.6-4.7 3.4-.3 1.3-1.9 3.6-3.4 5l-2.7 2.5-.6 28.8c-.4 15.8-.7 29.2-.8 29.9-.1.8-8.8 1.3-33.3 1.6-29.3.3-34.1.6-39.8 2.3l-6.5 1.9-.3 5.4c-.3 5.6 1.2 11.1 3.1 11.1.6 0 2.9.8 5.1 1.9 8.9 4 20.2 5.4 39.9 4.8 10-.4 18.3-.7 18.5-.7.1 0 .2-.4.2-.9 0-.4-1.5-1.2-3.2-1.8-3.2-.9-3.3-.9-1.1-2.1 1.7-.9 3.7-1 8-.2 3.2.6 6.6 1.2 7.6 1.3.9.1 1.8.1 1.8.2.1 0 .7 16 1.4 35.5.8 24.5 1.6 36.3 2.4 38.1 1 2.1 1.1 5.2.2 14.7-.6 6.6-1.1 21.3-1.1 32.7 0 13.9-.4 21.3-1.2 22.8-.6 1.2-1.3 5.7-1.4 10l-.3 7.7H139v-19.3c-.1-10.5-.5-26.7-.9-35.8-.5-9.5-.5-18.5 0-21 .7-3.5 2.7-59.3 2.9-81v-4.6l29.1-.6c20.6-.4 29.5-.9 30.5-1.8 1.1-.9 1.8-.9 2.6-.1.7.7 2.4 1.2 3.8 1.2 1.5 0 3 .3 3.3.7.4.3 4.3.8 8.7.9l8 .3v-5.8c0-3.2.3-7.2.6-8.9.5-2.7.3-3.2-1.7-3.7-1.3-.3-4.5.1-7.1.9-4.6 1.3-4.8 1.3-7.3-1-1.4-1.3-3.8-2.4-5.3-2.5-25.5-.5-62.4-2-64.6-2.5l-2.9-.7.7-17c.4-9.4 1.1-18.9 1.4-21.2.4-2.2.5-10 .2-17.2-.4-10.3-.9-13.7-2.2-14.9-1.1-1.2-2.1-1.3-3.4-.6-1.1.5-2.8.6-3.9.1-2.6-1-5.9-.9-11.2.2zM119 33c0 .5-.2 1-.4 1-.3 0-.8-.5-1.1-1-.3-.6-.1-1 .4-1 .6 0 1.1.4 1.1 1zm-10 51c0 .5-.4 1-1 1-.5 0-1-.5-1-1 0-.6.5-1 1-1 .6 0 1 .4 1 1zm-47 9c0 .5-1.1 1-2.5 1s-2.5-.5-2.5-1c0-.6 1.1-1 2.5-1s2.5.4 2.5 1zm24.7-.4c-.3.3-1.2.4-1.9.1-.8-.3-.5-.6.6-.6 1.1-.1 1.7.2 1.3.5zM50 94.4c0 .3-.4.8-1 1.1-.5.3-1 .1-1-.4 0-.6.5-1.1 1-1.1.6 0 1 .2 1 .4z"/></svg>